# This file uses centimeters as units for non-parametric coordinates.

mtllib Mesh_OBJ_Fence.mtl
g default
v 0.554553 0.000000 -0.233346
v -0.554555 0.000000 -0.233346
v 0.554553 4.843860 -0.233346
v -0.554555 4.843860 -0.233346
v 0.554553 4.843860 -0.000001
v -0.554555 4.843860 -0.000001
v 0.554553 0.000000 -0.000001
v -0.554555 0.000000 -0.000001
v -0.000001 0.000000 -0.233346
v -0.000001 0.000000 -0.000001
v -0.000001 5.621896 -0.000001
v -0.000001 5.621896 -0.233346
vt 0.130763 0.828957
vt 0.130763 0.034527
vt 0.214627 0.034412
vt 0.213206 0.742343
vt 0.130763 0.859211
vt 0.250398 0.861606
vt 0.351526 0.000000
vt 0.214638 0.000000
vt 0.046888 0.000000
vt 0.046899 0.034412
vt 0.048320 0.742343
vt 0.452654 0.861606
vt 0.351526 1.000000
vt 0.248507 0.742380
vt 0.236111 0.772859
vt 0.130763 0.000079
vt 0.249923 0.034419
vt 0.250398 0.000000
vt 0.452654 0.000000
vt 0.011604 0.034419
vt 0.025416 0.772859
vt 0.013020 0.742380
vn -0.000001 0.000000 -1.000000
vn -0.000001 0.000000 -1.000000
vn -0.000001 0.000000 -1.000000
vn -0.000001 0.000000 -1.000000
vn 0.000000 1.000000 0.000000
vn 0.000000 1.000000 0.000000
vn -0.814321 0.580415 -0.000000
vn -0.814321 0.580415 -0.000000
vn -0.000000 0.000000 1.000000
vn -0.000000 0.000000 1.000000
vn -0.000000 0.000000 1.000000
vn -0.000000 0.000000 1.000000
vn 0.000000 -1.000000 -0.000000
vn 0.000000 -1.000000 -0.000000
vn 0.000000 -1.000000 -0.000000
vn 0.000000 -1.000000 -0.000000
vn -1.000000 0.000000 -0.000000
vn -1.000000 0.000000 -0.000000
vn -1.000000 0.000000 -0.000000
vn -1.000000 0.000000 -0.000000
vn 1.000000 0.000000 0.000000
vn 1.000000 0.000000 0.000000
vn 1.000000 0.000000 0.000000
vn 1.000000 0.000000 0.000000
vn 0.000000 -1.000000 -0.000000
vn 0.000000 -1.000000 -0.000000
vn -0.000000 0.000000 1.000000
vn -0.000000 0.000000 1.000000
vn 0.814319 0.580418 0.000000
vn 0.814319 0.580418 0.000000
vn 0.000000 0.000000 -1.000000
vn 0.000000 0.000000 -1.000000
s 1
g autoUnwrapFaces polySurface9 polySurface8 pCube105
usemtl unwrapBaseShaderSG
f 12/1/1 9/2/2 2/3/3 4/4/4
s 2
f 11/5/5 12/1/6 4/4/7 6/15/8
s 3
f 10/7/9 11/13/10 6/6/11 8/18/12
s 4
f 9/2/13 10/16/14 8/8/15 2/3/16
s off
f 2/3/17 8/17/18 6/14/19 4/4/20
f 7/20/21 1/10/22 3/11/23 5/22/24
s 4
f 7/9/25 10/16/14 9/2/13 1/10/26
s 3
f 5/12/27 11/13/10 10/7/9 7/19/28
s 2
f 3/11/29 12/1/6 11/5/5 5/21/30
s 1
f 1/10/31 9/2/2 12/1/1 3/11/32
