# Blender v2.76 (sub 0) OBJ File: 'Mushroom.blend'
# www.blender.org
mtllib Mushroom.mtl
o Cylinder
v 0.059677 0.930040 -0.682115
v 0.524527 0.930040 -0.440130
v 0.682115 0.930040 0.059677
v 0.440130 0.930040 0.524527
v -0.059677 0.930040 0.682115
v -0.524527 0.930040 0.440130
v -0.682115 0.930040 -0.059677
v -0.440130 0.930040 -0.524527
v 0.043995 1.314534 -0.502869
v 0.386691 1.367066 -0.324472
v 0.502869 1.314534 0.043995
v 0.324472 1.367066 0.386691
v -0.043995 1.314534 0.502869
v -0.386691 1.367066 0.324472
v -0.502869 1.314534 -0.043995
v -0.324473 1.367066 -0.386691
v 0.407216 0.424392 -0.341694
v 0.529559 0.492407 0.046330
v 0.341694 0.424392 0.407216
v -0.046330 0.492407 0.529559
v -0.407216 0.424392 0.341694
v -0.529559 0.492407 -0.046330
v -0.341695 0.424392 -0.407216
v 0.046330 0.492407 -0.529559
v -0.320641 0.111560 0.615945
v -0.406429 1.812960 0.780743
v -0.236719 0.840430 0.454732
v -0.249326 1.013937 0.478951
v 0.208812 0.111560 0.662266
v 0.264680 1.812960 0.839457
v 0.154159 0.818367 0.488930
v 0.162369 1.041516 0.514970
v 0.615945 0.111560 0.320641
v 0.780743 1.812960 0.406429
v 0.454732 0.840430 0.236719
v 0.478951 1.013937 0.249326
v 0.662266 0.111560 -0.208812
v 0.839457 1.812960 -0.264680
v 0.488930 0.818367 -0.154159
v 0.514970 1.041516 -0.162369
v 0.320641 0.111560 -0.615945
v 0.406429 1.812960 -0.780743
v 0.236719 0.840430 -0.454732
v 0.249326 1.013937 -0.478951
v -0.208812 0.111560 -0.662266
v -0.264680 1.812960 -0.839457
v -0.154159 0.818367 -0.488930
v -0.162369 1.041516 -0.514970
v -0.615945 0.111560 -0.320641
v -0.780743 1.812960 -0.406429
v -0.454732 0.818367 -0.236719
v -0.478951 1.013937 -0.249326
v -0.662266 0.111560 0.208812
v -0.839457 1.812960 0.264680
v -0.488930 0.818367 0.154159
v -0.514970 1.041516 0.162369
v -0.261881 -0.009876 0.503068
v 0.170545 -0.009876 0.540900
v 0.503068 -0.009876 0.261881
v 0.540900 -0.009876 -0.170545
v 0.261881 -0.009876 -0.503068
v -0.170545 -0.009876 -0.540900
v -0.503068 -0.009876 -0.261881
v -0.540900 -0.009876 0.170545
v -0.000000 1.566549 0.000000
v 1.501630 1.566549 1.090985
v -0.573561 1.566549 1.765267
v -1.856114 1.566549 -0.000000
v -0.573561 1.566549 -1.765267
v 1.501630 1.566549 -1.090985
v 0.552776 2.165263 1.701298
v -1.447215 2.165263 1.051451
v -1.447215 2.165263 -1.051451
v 0.552776 2.165263 -1.701298
v 1.788852 2.165259 0.000000
v 0.000000 2.878338 0.000000
v -0.337128 1.759331 1.037590
v 0.882630 1.759331 0.641260
v 0.545505 1.566549 1.678861
v 1.765264 1.566549 0.000000
v 0.882630 1.759331 -0.641261
v -1.090995 1.759331 0.000000
v -1.428131 1.566549 1.037594
v -0.337128 1.759331 -1.037590
v -1.428131 1.566549 -1.037594
v 0.545505 1.566549 -1.678861
v 1.902116 1.816686 0.618025
v 1.902116 1.816686 -0.618025
v 0.000000 1.816686 2.000000
v 1.175571 1.816686 1.618033
v -1.902116 1.816686 0.618025
v -1.175571 1.816686 1.618033
v -1.175571 1.816686 -1.618033
v -1.902116 1.816686 -0.618025
v 1.175571 1.816686 -1.618033
v -0.000000 1.816686 -2.000000
v 1.376379 2.243780 0.999994
v -0.525738 2.243781 1.618023
v -1.701296 2.243779 -0.000000
v -0.525738 2.243781 -1.618023
v 1.376379 2.243780 -0.999994
v 0.324911 2.728992 0.999991
v 1.051460 2.728990 0.000000
v -0.850645 2.728992 0.618023
v -0.850645 2.728992 -0.618023
v 0.324911 2.728992 -0.999990
vt 0.959920 0.880856
vt 0.856732 0.868443
vt 0.908326 0.803929
vt 0.753545 0.880856
vt 0.805139 0.797412
vt 0.392389 0.986219
vt 0.443983 0.868443
vt 0.495576 0.986219
vt 0.289201 0.986219
vt 0.340795 0.880856
vt 0.547170 0.880856
vt 0.495576 0.803929
vt 0.443983 0.777588
vt 0.495576 0.751199
vt 0.547170 0.777588
vt 0.237608 0.868443
vt 0.134420 0.880856
vt 0.186014 0.797412
vt 0.805139 0.756413
vt 0.701951 0.751199
vt 0.753545 0.658104
vt 0.134420 0.777588
vt 0.082826 0.751199
vt 0.186014 0.751199
vt 0.237608 0.777588
vt 0.289201 0.751199
vt 0.340795 0.777588
vt 0.392389 0.756413
vt 0.598764 0.756413
vt 0.650358 0.777588
vt 0.908326 0.986219
vt 0.186014 0.986219
vt 0.598764 0.986219
vt 0.650358 0.868443
vt 0.701951 0.986219
vt 0.805139 0.986219
vt 0.650358 0.674176
vt 0.598764 0.584183
vt 0.701951 0.584183
vt 0.547170 0.658104
vt 0.495576 0.584183
vt 0.443983 0.674176
vt 0.392389 0.584183
vt 0.340795 0.658104
vt 0.289201 0.584183
vt 0.237608 0.674176
vt 0.186014 0.584183
vt 0.134420 0.658104
vt 0.082826 0.584183
vt 0.856733 0.674176
vt 0.805139 0.584183
vt 0.908326 0.584183
vt 0.959920 0.658104
vt 0.701951 0.803929
vt 0.598764 0.797412
vt 0.392389 0.797412
vt 0.289201 0.803929
vt 0.082826 0.803929
vt 0.753545 0.777588
vt 0.856733 0.777588
vt 0.908326 0.751199
vt 0.959920 0.777588
vt 0.082826 0.986219
vt 0.289201 0.555488
vt 0.392389 0.555488
vt 0.598764 0.555488
vt 0.701951 0.555488
vt 0.495576 0.555488
vt 0.805139 0.555488
vt 0.908326 0.555488
vt 0.082826 0.555488
vt 0.186014 0.555488
vt 0.742768 0.261958
vt 0.841382 0.269255
vt 0.766302 0.358001
vt 0.913350 0.274580
vt 0.881362 0.176134
vt 0.658698 0.314019
vt 0.667277 0.198090
vt 0.780182 0.170426
vt 0.038127 0.175053
vt 0.133456 0.043833
vt 0.105285 0.124430
vt 0.121702 0.468046
vt 0.026355 0.336825
vt 0.094304 0.388530
vt 0.426177 0.479086
vt 0.271926 0.529216
vt 0.342091 0.480568
vt 0.530778 0.192929
vt 0.530778 0.355130
vt 0.506199 0.273364
vt 0.290938 0.005030
vt 0.445205 0.055135
vt 0.359842 0.053253
vt 0.056804 0.257056
vt 0.205467 0.475615
vt 0.459262 0.401767
vt 0.467467 0.137566
vt 0.218726 0.048137
vt 0.112638 0.312214
vt 0.126530 0.207369
vt 0.194888 0.288750
vt 0.275177 0.439556
vt 0.179755 0.393950
vt 0.278277 0.354083
vt 0.446512 0.324327
vt 0.373650 0.400982
vt 0.366181 0.294965
vt 0.389871 0.125766
vt 0.440260 0.218752
vt 0.337121 0.193094
vt 0.183525 0.118281
vt 0.287528 0.099092
vt 0.231255 0.189253
vt 0.281545 0.264029
vt 0.703973 0.103627
vt 0.807487 0.103627
vt 0.612185 0.151480
vt 0.580197 0.249928
vt 0.597345 0.352012
vt 0.681089 0.412855
vt 0.783476 0.428091
vt 0.867220 0.367247
vn -0.260900 0.238700 -0.935400
vn 0.423800 0.219600 -0.878700
vn -0.074100 -0.526200 0.847100
vn -0.630000 -0.568800 0.528700
vn 0.260900 0.238700 0.935400
vn 0.204900 -0.731900 0.649900
vn -0.878700 0.219600 -0.423800
vn 0.763400 0.141600 -0.630200
vn -0.300600 -0.883900 -0.358200
vn -0.465900 -0.883900 -0.040800
vn -0.296700 -0.901500 0.315100
vn -0.088000 -0.901500 0.423800
vn 0.315100 -0.901500 0.296700
vn 0.423800 -0.901500 0.088000
vn -0.310400 -0.656500 -0.687500
vn -0.623200 -0.656500 -0.425000
vn -0.687500 -0.656500 0.310400
vn -0.425000 -0.656500 0.623200
vn 0.310400 -0.656500 0.687500
vn 0.623200 -0.656500 0.425000
vn 0.687500 -0.656500 -0.310400
vn 0.425000 -0.656500 -0.623200
vn 0.957100 0.277400 0.083700
vn 0.606400 0.331600 0.722700
vn -0.083700 0.277400 0.957100
vn -0.722700 0.331600 0.606400
vn -0.957100 0.277400 -0.083700
vn -0.606400 0.331600 -0.722700
vn 0.083700 0.277400 -0.957100
vn -0.452600 -0.056300 0.889900
vn 0.471700 0.503900 -0.723600
vn 0.794600 0.503900 -0.338800
vn 0.723600 0.503900 0.471700
vn 0.338800 0.503900 0.794600
vn -0.471700 0.503900 0.723600
vn -0.794600 0.503900 0.338800
vn -0.723600 0.503900 -0.471700
vn -0.338800 0.503900 -0.794600
vn 0.457500 0.883600 0.099200
vn 0.343700 0.883600 0.317900
vn -0.099200 0.883600 0.457500
vn -0.317900 0.883600 0.343700
vn -0.457500 0.883600 -0.099200
vn -0.343700 0.883600 -0.317900
vn 0.085800 -0.020700 -0.996100
vn 0.649900 -0.731900 -0.204900
vn -0.204900 -0.731900 -0.649900
vn 0.276400 -0.801100 -0.530900
vn -0.085800 -0.020700 0.996100
vn 0.935400 0.238700 -0.260900
vn -0.604400 -0.731900 -0.314600
vn -0.649900 -0.731900 0.204900
vn 0.530900 -0.801100 0.276400
vn -0.276400 -0.801100 0.530900
vn 0.878700 0.219600 0.423800
vn 0.528700 -0.568800 0.630000
vn -0.996100 -0.020700 -0.085800
vn -0.641800 -0.017500 -0.766700
vn 0.641800 -0.017500 0.766700
vn 0.996100 -0.020700 0.085800
vn 0.847100 -0.526200 0.074100
vn 0.630000 -0.568800 -0.528700
vn -0.528700 -0.568800 -0.630000
vn 0.766700 -0.017500 -0.641800
vn -0.847100 -0.526200 -0.074100
vn 0.074100 -0.526200 -0.847100
vn -0.766700 -0.017500 0.641800
vn 0.099200 0.883600 -0.457500
vn -0.935400 0.238700 0.260900
vn -0.423800 0.219600 0.878700
vn 0.317900 0.883600 -0.343700
vn -0.595400 0.741200 -0.310000
vn -0.733500 0.639100 0.231300
vn 0.231300 0.639100 0.733500
vn 0.733500 0.639100 -0.231300
vn 0.595400 0.741200 0.310000
vn 0.310000 0.741200 -0.595400
vn -0.231300 0.639100 -0.733500
vn 0.630200 0.141600 0.763400
vn 0.296700 -0.901500 -0.315100
vn 0.982600 0.169500 0.076400
vn -0.763400 0.141600 0.630200
vn -0.635900 0.145500 -0.757900
vn -0.980800 0.175000 -0.085800
vn 0.076400 0.169500 -0.982600
vn -0.076400 0.169500 0.982600
vn 0.889900 -0.056300 0.452600
vn 0.955000 -0.059700 -0.290600
vn 0.290600 -0.059700 0.955000
vn 0.452600 -0.056300 -0.889900
vn -0.955000 -0.059700 0.290600
vn -0.290600 -0.059700 -0.955000
vn -0.890000 -0.059700 -0.452000
vn -0.310000 0.741200 0.595400
vn 0.088000 -0.901500 -0.423800
vn 0.722700 0.331600 -0.606400
vn -0.550400 -0.695600 0.461800
vn 0.715700 -0.695600 0.062600
vn -0.062600 -0.695600 0.715700
vn 0.550400 -0.695600 -0.461800
vn 0.062600 -0.695600 -0.715700
vn -0.461800 -0.695600 -0.550400
vn 0.461800 -0.695600 0.550400
vn -0.715700 -0.695600 -0.062600
vn 0.065900 -0.977000 0.202900
vn -0.255600 -0.964800 -0.061800
vn -0.172600 -0.977000 0.125400
vn -0.172600 -0.977000 -0.125400
vn 0.065900 -0.977000 -0.202900
vn 0.649900 -0.743600 0.157100
vn 0.051500 -0.743600 0.666600
vn -0.618100 -0.743600 0.255000
vn -0.433500 -0.743600 -0.509100
vn 0.350200 -0.743600 -0.569600
vn 0.795700 -0.180900 0.578100
vn -0.303900 -0.180900 0.935400
vn -0.983500 -0.180900 0.000000
vn -0.303900 -0.180900 -0.935400
vn 0.795700 -0.180900 -0.578100
vn 0.360300 0.780700 0.510500
vn -0.374200 0.780700 0.500400
vn -0.591600 0.780700 -0.201200
vn 0.008600 0.780700 -0.624800
vn 0.596900 0.780700 -0.184900
vn 0.139900 0.984900 -0.101600
vn 0.400800 0.868600 -0.291200
vn 0.360300 0.780700 -0.510500
vn -0.053400 0.984900 -0.164500
vn -0.153100 0.868600 -0.471200
vn -0.374200 0.780700 -0.500400
vn -0.172900 0.984900 0.000000
vn -0.495500 0.868600 -0.000000
vn -0.591600 0.780700 0.201200
vn -0.053400 0.984900 0.164500
vn -0.153100 0.868600 0.471200
vn 0.008600 0.780700 0.624800
vn 0.139900 0.984900 0.101600
vn 0.400800 0.868600 0.291200
vn 0.596900 0.780700 0.184900
vn 0.711600 0.659700 -0.241700
vn 0.732100 0.425500 -0.531900
vn 0.449800 0.659700 -0.602000
vn -0.010000 0.659700 -0.751400
vn -0.279600 0.425500 -0.860700
vn -0.433600 0.659700 -0.613800
vn -0.717700 0.659700 -0.222700
vn -0.905000 0.425500 0.000000
vn -0.717700 0.659700 0.222700
vn -0.433600 0.659700 0.613800
vn -0.279600 0.425500 0.860700
vn -0.010000 0.659700 0.751400
vn 0.449800 0.659700 0.602000
vn 0.732100 0.425500 0.531900
vn 0.711600 0.659700 0.241700
vn 0.293900 0.309000 -0.904500
vn 0.271100 -0.480000 -0.834300
vn 0.051500 -0.743600 -0.666600
vn -0.769400 0.309000 -0.559000
vn -0.709700 -0.480000 -0.515700
vn -0.618100 -0.743600 -0.255000
vn -0.769400 0.309000 0.559000
vn -0.709700 -0.480000 0.515700
vn -0.433500 -0.743600 0.509100
vn 0.293900 0.309000 0.904500
vn 0.271100 -0.480000 0.834300
vn 0.350200 -0.743600 0.569600
vn 0.951100 0.309000 -0.000000
vn 0.877300 -0.480000 -0.000000
vn 0.649900 -0.743600 -0.157100
vn -0.137700 -0.964800 0.224000
vn -0.065900 -0.977000 0.202900
vn -0.020200 -0.964800 0.262200
vn 0.170500 -0.964800 0.200200
vn 0.172600 -0.977000 0.125400
vn 0.243100 -0.964800 0.100300
vn 0.243100 -0.964800 -0.100300
vn 0.172600 -0.977000 -0.125400
vn 0.170500 -0.964800 -0.200200
vn -0.255600 -0.964800 0.061800
vn -0.213400 -0.977000 0.000000
vn 0.213400 -0.977000 0.000000
vn -0.020200 -0.964800 -0.262200
vn -0.065900 -0.977000 -0.202900
vn -0.137700 -0.964800 -0.224000
usemtl Material.001
s off
f 16/1/1 9/2/1 48/3/1
f 9/2/2 10/4/2 44/5/2
f 26/6/3 13/7/3 30/8/3
f 54/9/4 14/10/4 26/6/4
f 12/11/5 13/7/5 32/12/5
f 5/13/6 31/14/6 4/15/6
f 15/16/7 16/17/7 52/18/7
f 43/19/8 39/20/8 17/21/8
f 8/22/9 47/23/9 51/24/9
f 7/25/10 51/24/10 55/26/10
f 6/27/11 55/26/11 27/28/11
f 5/13/12 27/28/12 31/14/12
f 4/15/13 31/14/13 35/29/13
f 3/30/14 35/29/14 39/20/14
f 9/2/15 16/1/15 46/31/15
f 16/17/16 15/16/16 50/32/16
f 15/16/17 14/10/17 54/9/17
f 14/10/18 13/7/18 26/6/18
f 30/8/19 13/7/19 12/11/19
f 34/33/20 12/11/20 11/34/20
f 11/34/21 10/4/21 38/35/21
f 10/4/22 9/2/22 42/36/22
f 18/37/23 33/38/23 37/39/23
f 19/40/24 29/41/24 33/38/24
f 20/42/25 25/43/25 29/41/25
f 21/44/26 53/45/26 25/43/26
f 22/46/27 49/47/27 53/45/27
f 23/48/28 45/49/28 49/47/28
f 24/50/29 41/51/29 45/52/29
f 21/44/30 20/42/30 27/28/30
f 17/21/31 41/51/31 24/50/31
f 17/21/32 18/37/32 37/39/32
f 19/40/33 33/38/33 18/37/33
f 19/40/34 20/42/34 29/41/34
f 21/44/35 25/43/35 20/42/35
f 22/46/36 53/45/36 21/44/36
f 22/46/37 23/48/37 49/47/37
f 23/53/38 24/50/38 45/52/38
f 40/54/39 36/55/39 3/30/39
f 36/55/40 32/12/40 4/15/40
f 32/12/41 28/56/41 5/13/41
f 28/56/42 56/57/42 6/27/42
f 56/57/43 52/18/43 7/25/43
f 52/18/44 48/58/44 8/22/44
f 48/3/45 9/2/45 44/5/45
f 2/59/46 3/30/46 39/20/46
f 1/60/47 47/61/47 8/62/47
f 1/60/48 2/59/48 43/19/48
f 13/7/49 28/56/49 32/12/49
f 10/4/50 11/34/50 40/54/50
f 8/22/51 51/24/51 7/25/51
f 7/25/52 55/26/52 6/27/52
f 3/30/53 4/15/53 35/29/53
f 6/27/54 27/28/54 5/13/54
f 11/34/55 12/11/55 36/55/55
f 30/8/56 12/11/56 34/33/56
f 15/16/57 52/18/57 56/57/57
f 52/18/58 16/17/58 48/58/58
f 12/11/59 32/12/59 36/55/59
f 11/34/60 36/55/60 40/54/60
f 34/33/61 11/34/61 38/35/61
f 38/35/62 10/4/62 42/36/62
f 46/63/63 16/17/63 50/32/63
f 44/5/64 10/4/64 40/54/64
f 50/32/65 15/16/65 54/9/65
f 42/36/66 9/2/66 46/31/66
f 28/56/67 14/10/67 56/57/67
f 48/3/68 44/5/68 1/60/68
f 14/10/69 15/16/69 56/57/69
f 13/7/70 14/10/70 28/56/70
f 44/5/71 40/54/71 2/59/71
f 52/18/72 8/22/72 7/25/72
f 56/57/73 7/25/73 6/27/73
f 5/13/74 4/15/74 32/12/74
f 3/30/75 2/59/75 40/54/75
f 4/15/76 3/30/76 36/55/76
f 2/59/77 1/60/77 44/5/77
f 1/60/78 8/62/78 48/3/78
f 35/29/79 31/14/79 19/40/79
f 2/59/80 39/20/80 43/19/80
f 39/20/81 35/29/81 18/37/81
f 27/28/82 55/26/82 21/44/82
f 51/24/83 47/23/83 23/48/83
f 55/26/84 51/24/84 22/46/84
f 47/61/85 43/19/85 24/50/85
f 31/14/86 27/28/86 20/42/86
f 19/40/87 18/37/87 35/29/87
f 18/37/88 17/21/88 39/20/88
f 20/42/89 19/40/89 31/14/89
f 17/21/90 24/50/90 43/19/90
f 22/46/91 21/44/91 55/26/91
f 24/50/92 23/53/92 47/61/92
f 23/48/93 22/46/93 51/24/93
f 28/56/94 6/27/94 5/13/94
f 1/60/95 43/19/95 47/61/95
f 17/21/96 37/39/96 41/51/96
f 25/43/97 53/45/97 64/64/97 57/65/97
f 37/39/98 33/38/98 59/66/98 60/67/98
f 29/41/99 25/43/99 57/65/99 58/68/99
f 41/51/100 37/39/100 60/67/100 61/69/100
f 45/52/101 41/51/101 61/69/101 62/70/101
f 49/47/102 45/49/102 62/71/102 63/72/102
f 33/38/103 29/41/103 58/68/103 59/66/103
f 53/45/104 49/47/104 63/72/104 64/64/104
usemtl Material.002
f 65/73/105 78/74/105 77/75/105
f 66/76/106 78/74/106 80/77/106
f 65/73/107 77/75/107 82/78/107
f 65/73/108 82/78/108 84/79/108
f 65/73/109 84/79/109 81/80/109
f 66/81/110 80/82/110 87/83/110
f 67/84/111 79/85/111 89/86/111
f 68/87/112 83/88/112 91/89/112
f 69/90/113 85/91/113 93/92/113
f 70/93/114 86/94/114 95/95/114
f 66/81/115 87/83/115 90/96/115
f 67/84/116 89/86/116 92/97/116
f 68/87/117 91/89/117 94/98/117
f 69/90/118 93/92/118 96/99/118
f 70/93/119 95/95/119 88/100/119
f 71/101/120 97/102/120 102/103/120
f 72/104/121 98/105/121 104/106/121
f 73/107/122 99/108/122 105/109/122
f 74/110/123 100/111/123 106/112/123
f 75/113/124 101/114/124 103/115/124
f 103/115/125 106/112/125 76/116/125
f 103/115/126 101/114/126 106/112/126
f 101/114/127 74/110/127 106/112/127
f 106/112/128 105/109/128 76/116/128
f 106/112/129 100/111/129 105/109/129
f 100/111/130 73/107/130 105/109/130
f 105/109/131 104/106/131 76/116/131
f 105/109/132 99/108/132 104/106/132
f 99/108/133 72/104/133 104/106/133
f 104/106/134 102/103/134 76/116/134
f 104/106/135 98/105/135 102/103/135
f 98/105/136 71/101/136 102/103/136
f 102/103/137 103/115/137 76/116/137
f 102/103/138 97/102/138 103/115/138
f 97/102/139 75/113/139 103/115/139
f 88/100/140 101/114/140 75/113/140
f 88/100/141 95/95/141 101/114/141
f 95/95/142 74/110/142 101/114/142
f 96/99/143 100/111/143 74/110/143
f 96/99/144 93/92/144 100/111/144
f 93/92/145 73/107/145 100/111/145
f 94/98/146 99/108/146 73/107/146
f 94/98/147 91/89/147 99/108/147
f 91/89/148 72/104/148 99/108/148
f 92/97/149 98/105/149 72/104/149
f 92/97/150 89/86/150 98/105/150
f 89/86/151 71/101/151 98/105/151
f 90/96/152 97/102/152 71/101/152
f 90/96/153 87/83/153 97/102/153
f 87/83/154 75/113/154 97/102/154
f 95/95/155 96/99/155 74/110/155
f 95/95/156 86/94/156 96/99/156
f 86/94/157 69/90/157 96/99/157
f 93/92/158 94/98/158 73/107/158
f 93/92/159 85/91/159 94/98/159
f 85/91/160 68/87/160 94/98/160
f 91/89/161 92/97/161 72/104/161
f 91/89/162 83/88/162 92/97/162
f 83/88/163 67/84/163 92/97/163
f 89/86/164 90/96/164 71/101/164
f 89/86/165 79/85/165 90/96/165
f 79/85/166 66/81/166 90/96/166
f 87/83/167 88/100/167 75/113/167
f 87/83/168 80/82/168 88/100/168
f 80/82/169 70/93/169 88/100/169
f 81/80/170 86/117/170 70/118/170
f 81/80/171 84/79/171 86/117/171
f 84/79/172 69/119/172 86/117/172
f 84/79/173 85/120/173 69/119/173
f 84/79/174 82/78/174 85/120/174
f 82/78/175 68/121/175 85/120/175
f 82/78/176 83/122/176 68/121/176
f 82/78/177 77/75/177 83/122/177
f 77/75/178 67/123/178 83/122/178
f 80/77/179 81/80/179 70/118/179
f 80/77/180 78/74/180 81/80/180
f 78/74/181 65/73/181 81/80/181
f 77/75/182 79/124/182 67/123/182
f 77/75/183 78/74/183 79/124/183
f 78/74/184 66/76/184 79/124/184
